<svg width="120" height="153" viewBox="0 0 120 153" fill="none" xmlns="http://www.w3.org/2000/svg">
    <path d="M46.6658 18H44.9695V12.085H38.5184V18H36.8309V5.20312H38.5184V10.7051H44.9695V5.20312H46.6658V18ZM58.441 6.5918H54.3277V18H52.649V6.5918H48.5445V5.20312H58.441V6.5918ZM62.7191 5.20312L66.9027 15.6445L71.0863 5.20312H73.2748V18H71.5873V13.0166L71.7455 7.6377L67.5443 18H66.2523L62.06 7.66406L62.227 13.0166V18H60.5395V5.20312H62.7191ZM78.1506 16.6201H84.215V18H76.4543V5.20312H78.1506V16.6201Z"
          fill="#1A1B22"/>
    <path fill-rule="evenodd" clip-rule="evenodd" d="M16 47H104L96.3966 134.532L60 144L23.9287 134.532L16 47Z"
          fill="#D1D2D6"/>
    <path fill-rule="evenodd" clip-rule="evenodd"
          d="M34.4834 65.1582H85.6064V74.8582H45.0714L46.0403 86.9191H84.7707L82.6975 119.504L60.0592 125.406L39.0776 119.469L37.572 105.249L47.2963 104.236L48.1118 111.938L60.1651 115.349L73.3839 111.903L74.3563 96.6191H37.0107L34.4834 65.1582Z"
          fill="#F5F6F7"/>
</svg>
