<svg width="568" height="20" viewBox="0 0 568 20" fill="none" xmlns="http://www.w3.org/2000/svg">
    <path d="M6.05859 7.36133C6.05859 8.63086 5.8418 9.57422 5.4082 10.1914C4.97461 10.8086 4.29688 11.1172 3.375 11.1172C2.46484 11.1172 1.79102 10.8164 1.35352 10.2148C0.916016 9.60938 0.689453 8.70703 0.673828 7.50781V6.06055C0.673828 4.80664 0.890625 3.875 1.32422 3.26562C1.75781 2.65625 2.4375 2.35156 3.36328 2.35156C4.28125 2.35156 4.95703 2.64648 5.39062 3.23633C5.82422 3.82227 6.04688 4.72852 6.05859 5.95508V7.36133ZM4.97461 5.87891C4.97461 4.96094 4.8457 4.29297 4.58789 3.875C4.33008 3.45312 3.92188 3.24219 3.36328 3.24219C2.80859 3.24219 2.4043 3.45117 2.15039 3.86914C1.89648 4.28711 1.76562 4.92969 1.75781 5.79688V7.53125C1.75781 8.45312 1.89062 9.13477 2.15625 9.57617C2.42578 10.0137 2.83203 10.2324 3.375 10.2324C3.91016 10.2324 4.30664 10.0254 4.56445 9.61133C4.82617 9.19727 4.96289 8.54492 4.97461 7.6543V5.87891Z"
          fill="#B6BCBF"/>
    <path d="M278.069 6.72266L278.502 2.46875H282.873V3.4707H279.422L279.164 5.79688C279.582 5.55078 280.057 5.42773 280.588 5.42773C281.366 5.42773 281.983 5.68555 282.44 6.20117C282.897 6.71289 283.125 7.40625 283.125 8.28125C283.125 9.16016 282.887 9.85352 282.411 10.3613C281.938 10.8652 281.276 11.1172 280.424 11.1172C279.67 11.1172 279.055 10.9082 278.579 10.4902C278.102 10.0723 277.83 9.49414 277.764 8.75586H278.789C278.856 9.24414 279.03 9.61328 279.311 9.86328C279.592 10.1094 279.963 10.2324 280.424 10.2324C280.928 10.2324 281.323 10.0605 281.608 9.7168C281.897 9.37305 282.041 8.89844 282.041 8.29297C282.041 7.72266 281.885 7.26562 281.573 6.92188C281.264 6.57422 280.852 6.40039 280.336 6.40039C279.864 6.40039 279.493 6.50391 279.223 6.71094L278.936 6.94531L278.069 6.72266ZM290.059 7.36133C290.059 8.63086 289.842 9.57422 289.408 10.1914C288.975 10.8086 288.297 11.1172 287.375 11.1172C286.465 11.1172 285.791 10.8164 285.354 10.2148C284.916 9.60938 284.689 8.70703 284.674 7.50781V6.06055C284.674 4.80664 284.891 3.875 285.324 3.26562C285.758 2.65625 286.438 2.35156 287.363 2.35156C288.281 2.35156 288.957 2.64648 289.391 3.23633C289.824 3.82227 290.047 4.72852 290.059 5.95508V7.36133ZM288.975 5.87891C288.975 4.96094 288.846 4.29297 288.588 3.875C288.33 3.45312 287.922 3.24219 287.363 3.24219C286.809 3.24219 286.404 3.45117 286.15 3.86914C285.896 4.28711 285.766 4.92969 285.758 5.79688V7.53125C285.758 8.45312 285.891 9.13477 286.156 9.57617C286.426 10.0137 286.832 10.2324 287.375 10.2324C287.91 10.2324 288.307 10.0254 288.564 9.61133C288.826 9.19727 288.963 8.54492 288.975 7.6543V5.87891Z"
          fill="#B6BCBF"/>
    <path d="M161.161 11H155.571V10.2207L158.524 6.93945C158.961 6.44336 159.262 6.04102 159.426 5.73242C159.594 5.41992 159.678 5.09766 159.678 4.76562C159.678 4.32031 159.543 3.95508 159.274 3.66992C159.004 3.38477 158.645 3.24219 158.196 3.24219C157.657 3.24219 157.237 3.39648 156.936 3.70508C156.639 4.00977 156.491 4.43555 156.491 4.98242H155.407C155.407 4.19727 155.659 3.5625 156.162 3.07812C156.67 2.59375 157.348 2.35156 158.196 2.35156C158.989 2.35156 159.616 2.56055 160.077 2.97852C160.537 3.39258 160.768 3.94531 160.768 4.63672C160.768 5.47656 160.233 6.47656 159.162 7.63672L156.877 10.1152H161.161V11ZM163.207 6.72266L163.641 2.46875H168.012V3.4707H164.561L164.303 5.79688C164.721 5.55078 165.195 5.42773 165.727 5.42773C166.504 5.42773 167.121 5.68555 167.578 6.20117C168.035 6.71289 168.264 7.40625 168.264 8.28125C168.264 9.16016 168.025 9.85352 167.549 10.3613C167.076 10.8652 166.414 11.1172 165.562 11.1172C164.809 11.1172 164.193 10.9082 163.717 10.4902C163.24 10.0723 162.969 9.49414 162.902 8.75586H163.928C163.994 9.24414 164.168 9.61328 164.449 9.86328C164.73 10.1094 165.102 10.2324 165.562 10.2324C166.066 10.2324 166.461 10.0605 166.746 9.7168C167.035 9.37305 167.18 8.89844 167.18 8.29297C167.18 7.72266 167.023 7.26562 166.711 6.92188C166.402 6.57422 165.99 6.40039 165.475 6.40039C165.002 6.40039 164.631 6.50391 164.361 6.71094L164.074 6.94531L163.207 6.72266Z"
          fill="#B6BCBF"/>
    <path d="M405.079 3.07812L401.545 11H400.409L403.93 3.35938H399.313V2.46875H405.079V3.07812ZM407.207 6.72266L407.641 2.46875H412.012V3.4707H408.561L408.303 5.79688C408.721 5.55078 409.195 5.42773 409.727 5.42773C410.504 5.42773 411.121 5.68555 411.578 6.20117C412.035 6.71289 412.264 7.40625 412.264 8.28125C412.264 9.16016 412.025 9.85352 411.549 10.3613C411.076 10.8652 410.414 11.1172 409.562 11.1172C408.809 11.1172 408.193 10.9082 407.717 10.4902C407.24 10.0723 406.969 9.49414 406.902 8.75586H407.928C407.994 9.24414 408.168 9.61328 408.449 9.86328C408.73 10.1094 409.102 10.2324 409.562 10.2324C410.066 10.2324 410.461 10.0605 410.746 9.7168C411.035 9.37305 411.18 8.89844 411.18 8.29297C411.18 7.72266 411.023 7.26562 410.711 6.92188C410.402 6.57422 409.99 6.40039 409.475 6.40039C409.002 6.40039 408.631 6.50391 408.361 6.71094L408.074 6.94531L407.207 6.72266Z"
          fill="#B6BCBF"/>
    <path d="M550.857 11H549.767V3.77539L547.581 4.57812V3.59375L550.687 2.42773H550.857V11ZM559.782 7.36133C559.782 8.63086 559.565 9.57422 559.132 10.1914C558.698 10.8086 558.02 11.1172 557.098 11.1172C556.188 11.1172 555.514 10.8164 555.077 10.2148C554.639 9.60938 554.413 8.70703 554.397 7.50781V6.06055C554.397 4.80664 554.614 3.875 555.048 3.26562C555.481 2.65625 556.161 2.35156 557.087 2.35156C558.005 2.35156 558.68 2.64648 559.114 3.23633C559.548 3.82227 559.77 4.72852 559.782 5.95508V7.36133ZM558.698 5.87891C558.698 4.96094 558.569 4.29297 558.311 3.875C558.054 3.45312 557.645 3.24219 557.087 3.24219C556.532 3.24219 556.128 3.45117 555.874 3.86914C555.62 4.28711 555.489 4.92969 555.481 5.79688V7.53125C555.481 8.45312 555.614 9.13477 555.88 9.57617C556.149 10.0137 556.555 10.2324 557.098 10.2324C557.634 10.2324 558.03 10.0254 558.288 9.61133C558.55 9.19727 558.686 8.54492 558.698 7.6543V5.87891ZM566.92 7.36133C566.92 8.63086 566.704 9.57422 566.27 10.1914C565.836 10.8086 565.159 11.1172 564.237 11.1172C563.327 11.1172 562.653 10.8164 562.215 10.2148C561.778 9.60938 561.551 8.70703 561.536 7.50781V6.06055C561.536 4.80664 561.752 3.875 562.186 3.26562C562.62 2.65625 563.299 2.35156 564.225 2.35156C565.143 2.35156 565.819 2.64648 566.252 3.23633C566.686 3.82227 566.909 4.72852 566.92 5.95508V7.36133ZM565.836 5.87891C565.836 4.96094 565.707 4.29297 565.45 3.875C565.192 3.45312 564.784 3.24219 564.225 3.24219C563.67 3.24219 563.266 3.45117 563.012 3.86914C562.758 4.28711 562.627 4.92969 562.62 5.79688V7.53125C562.62 8.45312 562.752 9.13477 563.018 9.57617C563.287 10.0137 563.694 10.2324 564.237 10.2324C564.772 10.2324 565.168 10.0254 565.426 9.61133C565.688 9.19727 565.825 8.54492 565.836 7.6543V5.87891Z"
          fill="#B6BCBF"/>
</svg>
