<svg width="1128" height="20" fill="none" xmlns="http://www.w3.org/2000/svg"><path d="M6.059 7.361c0 1.27-.217 2.213-.65 2.83-.434.618-1.112.926-2.034.926-.91 0-1.584-.3-2.021-.902-.438-.606-.665-1.508-.68-2.707V6.06c0-1.254.217-2.186.65-2.795.434-.61 1.113-.914 2.04-.914.917 0 1.593.294 2.027.884.433.586.656 1.493.668 2.72V7.36zM4.975 5.88c0-.918-.13-1.586-.387-2.004-.258-.422-.666-.633-1.225-.633-.554 0-.959.21-1.213.627-.254.418-.384 1.06-.392 1.928V7.53c0 .922.133 1.604.398 2.045.27.438.676.656 1.219.656.535 0 .932-.207 1.19-.62.261-.415.398-1.067.41-1.958V5.88zm553.094.843l.433-4.254h4.371V3.47h-3.451l-.258 2.326c.418-.246.893-.37 1.424-.37.778 0 1.395.259 1.852.774.457.512.685 1.205.685 2.08 0 .88-.238 1.573-.714 2.08-.473.504-1.135.756-1.987.756-.754 0-1.369-.209-1.845-.627-.477-.418-.749-.996-.815-1.734h1.025c.067.488.241.857.522 1.107.281.246.652.37 1.113.37.504 0 .899-.173 1.184-.516.289-.344.433-.819.433-1.424 0-.57-.156-1.027-.468-1.371-.309-.348-.721-.522-1.237-.522-.472 0-.843.104-1.113.31l-.287.235-.867-.222zm11.99.638c0 1.27-.217 2.213-.651 2.83-.433.618-1.111.926-2.033.926-.91 0-1.584-.3-2.021-.902-.438-.606-.665-1.508-.68-2.707V6.06c0-1.254.217-2.186.65-2.795.434-.61 1.114-.914 2.039-.914.918 0 1.594.294 2.028.884.433.586.656 1.493.668 2.72V7.36zm-1.084-1.482c0-.918-.129-1.586-.387-2.004-.258-.422-.666-.633-1.225-.633-.554 0-.959.21-1.213.627-.254.418-.384 1.06-.392 1.928V7.53c0 .922.133 1.604.398 2.045.27.438.676.656 1.219.656.535 0 .932-.207 1.189-.62.262-.415.399-1.067.411-1.958V5.88zM301.161 11h-5.59v-.78l2.953-3.28c.437-.497.738-.899.902-1.208.168-.312.252-.634.252-.966 0-.446-.135-.81-.404-1.096-.27-.285-.629-.428-1.078-.428-.539 0-.959.154-1.26.463-.297.305-.445.73-.445 1.277h-1.084c0-.785.252-1.42.755-1.904.508-.484 1.186-.726 2.034-.726.793 0 1.42.209 1.881.627.46.414.691.966.691 1.658 0 .84-.535 1.84-1.606 3l-2.285 2.478h4.284V11zm2.046-4.277l.434-4.254h4.371V3.47h-3.451l-.258 2.326c.418-.246.892-.37 1.424-.37.777 0 1.394.259 1.851.774.457.512.686 1.205.686 2.08 0 .88-.239 1.573-.715 2.08-.473.504-1.135.756-1.987.756-.753 0-1.369-.209-1.845-.627-.477-.418-.748-.996-.815-1.734h1.026c.066.488.24.857.521 1.107.281.246.653.37 1.113.37.504 0 .899-.173 1.184-.516.289-.344.434-.819.434-1.424 0-.57-.157-1.027-.469-1.371-.309-.348-.721-.522-1.236-.522-.473 0-.844.104-1.114.31l-.287.235-.867-.222zm521.872-3.645L821.545 11h-1.136l3.521-7.64h-4.617v-.891h5.766v.61zm2.128 3.645l.434-4.254h4.371V3.47h-3.451l-.258 2.326c.418-.246.892-.37 1.424-.37.777 0 1.394.259 1.851.774.457.512.686 1.205.686 2.08 0 .88-.239 1.573-.715 2.08-.473.504-1.135.756-1.987.756-.753 0-1.369-.209-1.845-.627-.477-.418-.748-.996-.815-1.734h1.026c.066.488.24.857.521 1.107.281.246.653.37 1.113.37.504 0 .899-.173 1.184-.516.289-.344.434-.819.434-1.424 0-.57-.157-1.027-.469-1.371-.309-.348-.721-.522-1.236-.522-.473 0-.844.104-1.114.31l-.287.235-.867-.222zM1110.86 11h-1.09V3.775l-2.19.803v-.984l3.11-1.166h.17V11zm8.92-3.639c0 1.27-.21 2.213-.65 2.83-.43.618-1.11.926-2.03.926-.91 0-1.59-.3-2.02-.902-.44-.606-.67-1.508-.68-2.707V6.06c0-1.254.21-2.186.65-2.795.43-.61 1.11-.914 2.04-.914.91 0 1.59.294 2.02.884.44.586.66 1.493.67 2.72V7.36zm-1.08-1.482c0-.918-.13-1.586-.39-2.004-.26-.422-.66-.633-1.22-.633-.56 0-.96.21-1.22.627-.25.418-.38 1.06-.39 1.928V7.53c0 .922.13 1.604.4 2.045.27.438.68.656 1.22.656.53 0 .93-.207 1.19-.62.26-.415.4-1.067.41-1.958V5.88zm8.22 1.482c0 1.27-.22 2.213-.65 2.83-.43.618-1.11.926-2.03.926-.91 0-1.59-.3-2.02-.902-.44-.606-.67-1.508-.68-2.707V6.06c0-1.254.21-2.186.65-2.795.43-.61 1.11-.914 2.03-.914.92 0 1.6.294 2.03.884.44.586.66 1.493.67 2.72V7.36zm-1.08-1.482c0-.918-.13-1.586-.39-2.004-.26-.422-.67-.633-1.23-.633-.55 0-.95.21-1.21.627-.25.418-.38 1.06-.39 1.928V7.53c0 .922.13 1.604.4 2.045.27.438.67.656 1.22.656.53 0 .93-.207 1.19-.62.26-.415.39-1.067.41-1.958V5.88z" fill="#B6BCBF"/></svg>